<svg width="150" height="44" viewBox="0 0 150 44" fill="none" xmlns="http://www.w3.org/2000/svg">
<path d="M149.005 38.8052C149.005 39.359 148.895 39.9073 148.681 40.4189C148.466 40.9305 148.152 41.3952 147.756 41.7866C147.361 42.178 146.891 42.4883 146.374 42.6998C145.856 42.9114 145.302 43.0199 144.743 43.0194H5.2573C4.12677 43.0205 3.04205 42.5772 2.2417 41.787C1.44136 40.9967 0.990914 39.9241 0.989441 38.8052V5.19866C0.990914 4.07923 1.44118 3.00612 2.24137 2.21497C3.04155 1.42382 4.12626 0.979294 5.2573 0.979004H144.742C145.301 0.979004 145.856 1.08816 146.373 1.30023C146.89 1.5123 147.36 1.82313 147.756 2.21498C148.152 2.60683 148.466 3.07201 148.68 3.58395C148.894 4.0959 149.004 4.64458 149.004 5.19866L149.005 38.8052Z" fill="white"/>
<path d="M144.743 44H5.25729C3.8646 43.9997 2.5289 43.4526 1.54329 42.4788C0.557675 41.5049 0.00264991 40.1839 0 38.8055L0 5.20003C0.00206028 3.82095 0.556719 2.49899 1.5423 1.52414C2.52788 0.549291 3.86391 0.00116399 5.25729 0L144.742 0C146.135 0.0017448 147.471 0.550059 148.456 1.52478C149.441 2.4995 149.996 3.82113 149.999 5.20003V38.8055C150.001 41.6707 147.639 44 144.743 44Z" fill="#A6A6A6"/>
<path d="M149.005 38.8052C149.005 39.359 148.895 39.9073 148.681 40.4189C148.466 40.9305 148.152 41.3952 147.756 41.7866C147.361 42.178 146.891 42.4883 146.374 42.6998C145.856 42.9114 145.302 43.0199 144.743 43.0194H5.2573C4.12677 43.0205 3.04205 42.5772 2.2417 41.787C1.44136 40.9967 0.990914 39.9241 0.989441 38.8052V5.19866C0.990914 4.07923 1.44118 3.00612 2.24137 2.21497C3.04155 1.42382 4.12626 0.979294 5.2573 0.979004H144.742C145.301 0.979004 145.856 1.08816 146.373 1.30023C146.89 1.5123 147.36 1.82313 147.756 2.21498C148.152 2.60683 148.466 3.07201 148.68 3.58395C148.894 4.0959 149.004 4.64458 149.004 5.19866L149.005 38.8052Z" fill="black"/>
<path d="M33.4937 21.7686C33.4615 18.2224 36.4275 16.4971 36.5631 16.4168C34.8833 13.9928 32.2797 13.6616 31.3648 13.6352C29.178 13.4074 27.0569 14.9302 25.9429 14.9302C24.8068 14.9302 23.0914 13.6572 21.2426 13.6946C18.8636 13.7309 16.6379 15.0942 15.4173 17.2112C12.8981 21.5277 14.7769 27.8709 17.1904 31.36C18.3978 33.0698 19.8085 34.9767 21.6551 34.9095C23.4616 34.8369 24.1364 33.7707 26.3165 33.7707C28.4765 33.7707 29.1102 34.9095 30.9935 34.8666C32.9323 34.8369 34.1529 33.1502 35.318 31.426C36.7132 29.4685 37.2735 27.5386 37.2958 27.4396C37.2513 27.4242 33.5315 26.018 33.4937 21.7686ZM29.9362 11.34C30.9079 10.1373 31.5727 8.50118 31.3881 6.84082C29.9818 6.90244 28.2231 7.80359 27.2103 8.97981C26.3143 10.0163 25.5138 11.7152 25.7206 13.3128C27.3003 13.4294 28.9223 12.5239 29.9362 11.34Z" fill="white"/>
<path d="M144.743 0H70.0301L99.2937 44H144.743C146.136 43.9988 147.471 43.451 148.457 42.4766C149.442 41.5023 149.997 40.1809 150 38.8022V5.20003C149.998 3.82104 149.443 2.49925 148.457 1.52446C147.472 0.549675 146.136 0.00145451 144.743 0Z" fill="url(#paint0_linear_717_1171)"/>
<path d="M59.6601 34.6643H57.1354L55.7524 30.3632H50.9454L49.628 34.6643H47.17L51.9337 20.0214H54.8753L59.6601 34.6643ZM55.3355 28.5587L54.0848 24.7351C53.9525 24.3445 53.7035 23.4247 53.3389 21.9767H53.2944C53.1477 22.5995 52.9131 23.5193 52.5918 24.7351L51.3623 28.5587H55.3355ZM71.8867 29.2552C71.8867 31.0509 71.3942 32.4703 70.4081 33.5123C69.5254 34.4398 68.4281 34.903 67.1197 34.903C65.7067 34.903 64.6906 34.4046 64.0736 33.4055V38.9456H61.7034V27.5761C61.7034 26.4483 61.6734 25.2919 61.6156 24.1058H63.7L63.8323 25.7793H63.8768C64.6672 24.5184 65.8668 23.8879 67.4765 23.8879C68.735 23.8879 69.7855 24.3797 70.626 25.3645C71.4653 26.3515 71.8867 27.6476 71.8867 29.2552ZM69.472 29.341C69.472 28.3133 69.2386 27.4661 68.7694 26.7982C68.2569 26.1039 67.5688 25.7562 66.7061 25.7562C66.1213 25.7562 65.5899 25.9499 65.1152 26.3317C64.6394 26.7168 64.3282 27.2196 64.1825 27.8424C64.1175 28.0753 64.0806 28.315 64.0725 28.5565V30.3181C64.0725 31.085 64.3104 31.7331 64.7862 32.2634C65.262 32.7916 65.8801 33.0567 66.6405 33.0567C67.5332 33.0567 68.228 32.7145 68.725 32.0357C69.223 31.3546 69.472 30.4567 69.472 29.341ZM84.1566 29.2552C84.1566 31.0509 83.6642 32.4703 82.6781 33.5123C81.7943 34.4398 80.6981 34.903 79.3885 34.903C77.9755 34.903 76.9594 34.4046 76.3424 33.4055V38.9456H73.9723V27.5761C73.9723 26.4483 73.9422 25.2919 73.8844 24.1058H75.9689L76.1012 25.7793H76.1457C76.935 24.5184 78.1345 23.8879 79.7454 23.8879C81.0027 23.8879 82.0533 24.3797 82.896 25.3645C83.7342 26.3515 84.1566 27.6476 84.1566 29.2552ZM81.7409 29.341C81.7409 28.3133 81.5063 27.4661 81.0372 26.7982C80.5247 26.1039 79.8388 25.7562 78.9761 25.7562C78.3913 25.7562 77.8599 25.9499 77.383 26.3317C76.9072 26.7168 76.597 27.2196 76.4514 27.8424C76.3791 28.1329 76.3402 28.3694 76.3402 28.5565V30.3181C76.3402 31.085 76.5792 31.7331 77.0528 32.2634C77.5286 32.7905 78.1467 33.0567 78.9094 33.0567C79.8032 33.0567 80.498 32.7145 80.9938 32.0357C81.4919 31.3546 81.7409 30.4567 81.7409 29.341ZM97.8752 30.5568C97.8752 31.8035 97.4349 32.8169 96.56 33.5992C95.5973 34.453 94.2532 34.881 92.5301 34.881C90.9381 34.881 89.6619 34.5773 88.6991 33.9689L89.2472 32.0136C90.2866 32.6232 91.4284 32.9269 92.6713 32.9269C93.5651 32.9269 94.2599 32.7266 94.7557 32.3294C95.2527 31.9311 95.5039 31.3986 95.5039 30.734C95.5039 30.1387 95.296 29.6403 94.888 29.2343C94.4778 28.8294 93.7996 28.452 92.8469 28.1054C90.2566 27.1492 88.9604 25.7507 88.9604 23.911C88.9604 22.7095 89.4184 21.7258 90.3322 20.9567C91.246 20.1887 92.4578 19.8047 93.9653 19.8047C95.3116 19.8047 96.4333 20.0369 97.3238 20.5001L96.729 22.4124C95.8908 21.9635 94.9447 21.739 93.8864 21.739C93.0504 21.739 92.3944 21.9426 91.9253 22.3475C91.5306 22.7095 91.3305 23.1507 91.3305 23.6745C91.3305 24.2521 91.5584 24.7318 92.012 25.1081C92.4056 25.4547 93.1237 25.8321 94.1621 26.2371C95.4361 26.7454 96.3721 27.3374 96.9714 28.0173C97.575 28.6973 97.8752 29.5457 97.8752 30.5568ZM105.732 25.8663H103.119V30.9926C103.119 32.2964 103.579 32.9467 104.502 32.9467C104.926 32.9467 105.277 32.9115 105.555 32.8378L105.62 34.6192C105.154 34.7919 104.539 34.8788 103.777 34.8788C102.841 34.8788 102.11 34.5961 101.582 34.0305C101.056 33.4649 100.791 32.5176 100.791 31.184V25.8619H99.2348V24.1014H100.791V22.1681L103.119 21.4727V24.1014H105.732V25.8663ZM117.496 29.2981C117.496 30.921 117.027 32.2535 116.091 33.2955C115.111 34.3683 113.808 34.903 112.184 34.903C110.617 34.903 109.37 34.3892 108.441 33.3626C107.512 32.3338 107.047 31.0377 107.047 29.4741C107.047 27.838 107.527 26.4978 108.484 25.4558C109.444 24.4128 110.735 23.8912 112.36 23.8912C113.925 23.8912 115.182 24.4062 116.134 25.4338C117.043 26.4307 117.496 27.7181 117.496 29.2981ZM115.039 29.352C115.039 28.3848 114.828 27.5552 114.404 26.8609C113.907 26.0225 113.196 25.6033 112.274 25.6033C111.325 25.6033 110.597 26.0225 110.101 26.8609C109.676 27.5552 109.465 28.3991 109.465 29.396C109.465 30.3643 109.676 31.1961 110.101 31.8882C110.613 32.7266 111.328 33.1459 112.254 33.1459C113.16 33.1459 113.87 32.7178 114.384 31.8673C114.82 31.1565 115.039 30.3214 115.039 29.352ZM125.203 26.1688C124.957 26.1248 124.707 26.1031 124.456 26.1039C123.622 26.1039 122.978 26.4142 122.524 27.0392C122.131 27.5893 121.933 28.2847 121.933 29.1242V34.6643H119.562V27.4309C119.565 26.3225 119.542 25.2142 119.494 24.1069H121.558L121.645 26.127H121.71C121.962 25.4327 122.355 24.8727 122.895 24.4535C123.39 24.0872 123.991 23.8888 124.609 23.8879C124.828 23.8879 125.025 23.9033 125.201 23.9308L125.203 26.1688ZM135.803 28.8855C135.809 29.2421 135.78 29.5984 135.717 29.9495H128.606C128.633 30.9926 128.978 31.7914 129.638 32.3415C130.237 32.8323 131.012 33.0787 131.964 33.0787C133.016 33.0787 133.977 32.9137 134.841 32.5803L135.212 34.2076C134.203 34.6434 133.011 34.8601 131.636 34.8601C129.981 34.8601 128.683 34.3782 127.738 33.4165C126.795 32.4538 126.323 31.1598 126.323 29.5391C126.323 27.948 126.762 26.6222 127.641 25.5648C128.562 24.4359 129.806 23.8714 131.371 23.8714C132.909 23.8714 134.073 24.4359 134.863 25.5648C135.489 26.4593 135.803 27.5684 135.803 28.8855ZM133.543 28.277C133.56 27.5805 133.404 26.9809 133.083 26.4736C132.673 25.82 132.041 25.4944 131.195 25.4944C130.421 25.4944 129.789 25.8123 129.309 26.4505C128.914 26.9578 128.68 27.5673 128.607 28.2748L133.543 28.277Z" fill="white"/>
<path d="M50.2616 14.8444C49.6024 14.8444 49.0321 14.8124 48.5574 14.7585V7.67918C49.2213 7.57767 49.8922 7.52764 50.564 7.52954C53.2822 7.52954 54.5339 8.8532 54.5339 11.0109C54.5339 13.4998 53.0554 14.8444 50.2616 14.8444ZM50.6596 8.43729C50.2928 8.43729 49.9804 8.45929 49.7213 8.51211V13.8937C49.8614 13.9157 50.1304 13.9256 50.5084 13.9256C52.2894 13.9256 53.3033 12.9221 53.3033 11.0428C53.3033 9.36704 52.3861 8.43729 50.6596 8.43729ZM58.4349 14.8983C56.903 14.8983 55.9102 13.7661 55.9102 12.2289C55.9102 10.6269 56.9241 9.48478 58.5216 9.48478C60.0314 9.48478 61.0463 10.5631 61.0463 12.1442C61.0463 13.7661 60.0002 14.8983 58.4349 14.8983ZM58.4794 10.3276C57.6378 10.3276 57.0987 11.1066 57.0987 12.1959C57.0987 13.2643 57.649 14.0433 58.4683 14.0433C59.2876 14.0433 59.8379 13.2104 59.8379 12.1739C59.8379 11.1176 59.2987 10.3276 58.4794 10.3276ZM69.7822 9.5915L68.1424 14.7805H67.074L66.3948 12.5271C66.2259 11.9759 66.0853 11.4166 65.9735 10.8514H65.9512C65.8656 11.4169 65.7033 11.9836 65.531 12.5271L64.8084 14.7805H63.7289L62.1859 9.5915H63.3832L63.9768 12.0584C64.1169 12.6459 64.2347 13.2005 64.3326 13.7242H64.3548C64.4404 13.2874 64.5805 12.7417 64.7861 12.0694L65.531 9.59261H66.4804L67.193 12.0166C67.3653 12.6041 67.5054 13.1807 67.6143 13.7253H67.6455C67.7211 13.1917 67.84 12.625 68.0012 12.0166L68.6382 9.59261L69.7822 9.5915ZM75.8188 14.7805H74.6537V11.8009C74.6537 10.8833 74.298 10.4233 73.5965 10.4233C72.9061 10.4233 72.4314 11.0109 72.4314 11.6942V14.7805H71.2663V11.0747C71.2663 10.6159 71.2552 10.1241 71.223 9.5904H72.248L72.3024 10.3914H72.3347C72.6482 9.83687 73.2841 9.48478 73.9967 9.48478C75.0973 9.48478 75.8199 10.3177 75.8199 11.6733L75.8188 14.7805ZM79.0316 14.7805H77.8654V7.21045H79.0316V14.7805ZM83.2795 14.8983C81.7487 14.8983 80.7548 13.7661 80.7548 12.2289C80.7548 10.6269 81.7687 9.48478 83.3651 9.48478C84.8759 9.48478 85.8898 10.5631 85.8898 12.1442C85.8909 13.7661 84.8437 14.8983 83.2795 14.8983ZM83.3228 10.3276C82.4813 10.3276 81.9421 11.1066 81.9421 12.1959C81.9421 13.2643 82.4935 14.0433 83.3106 14.0433C84.1311 14.0433 84.6802 13.2104 84.6802 12.1739C84.6813 11.1176 84.1433 10.3276 83.3228 10.3276ZM90.4834 14.7805L90.3989 14.1831H90.3678C90.012 14.6639 89.4928 14.8983 88.8347 14.8983C87.8953 14.8983 87.2283 14.2469 87.2283 13.371C87.2283 12.0903 88.35 11.4279 90.2922 11.4279V11.3322C90.2922 10.6489 89.9264 10.3067 89.2038 10.3067C88.6868 10.3067 88.2333 10.4354 87.8342 10.6918L87.5974 9.9337C88.0821 9.63442 88.6868 9.48478 89.3972 9.48478C90.7669 9.48478 91.4583 10.2 91.4583 11.6315V13.5427C91.4583 14.0664 91.4817 14.4724 91.5339 14.7816L90.4834 14.7805ZM90.3233 12.1959C89.0293 12.1959 88.38 12.5062 88.38 13.2423C88.38 13.787 88.7146 14.0532 89.1793 14.0532C89.7719 14.0532 90.3233 13.6054 90.3233 12.9969V12.1959ZM97.1159 14.7805L97.0614 13.9476H97.0291C96.6945 14.577 96.132 14.8983 95.346 14.8983C94.082 14.8983 93.1459 13.798 93.1459 12.2498C93.1459 10.6269 94.1164 9.48368 95.4416 9.48368C96.1431 9.48368 96.64 9.71804 96.9202 10.189H96.9435V7.21045H98.1097V13.382C98.1097 13.8838 98.122 14.3536 98.1531 14.7805H97.1159ZM96.9435 11.7272C96.9435 11.001 96.4577 10.3815 95.7162 10.3815C94.8524 10.3815 94.3243 11.1396 94.3243 12.2069C94.3243 13.2533 94.8724 13.9696 95.6929 13.9696C96.4255 13.9696 96.9435 13.3391 96.9435 12.592V11.7272ZM105.504 14.8983C103.973 14.8983 102.98 13.7661 102.98 12.2289C102.98 10.6269 103.994 9.48478 105.59 9.48478C107.101 9.48478 108.115 10.5631 108.115 12.1442C108.116 13.7661 107.07 14.8983 105.504 14.8983ZM105.547 10.3276C104.707 10.3276 104.167 11.1066 104.167 12.1959C104.167 13.2643 104.718 14.0433 105.536 14.0433C106.356 14.0433 106.906 13.2104 106.906 12.1739C106.908 11.1176 106.369 10.3276 105.547 10.3276ZM114.381 14.7805H113.215V11.8009C113.215 10.8833 112.859 10.4233 112.157 10.4233C111.467 10.4233 110.993 11.0109 110.993 11.6942V14.7805H109.827V11.0747C109.827 10.6159 109.816 10.1241 109.784 9.5904H110.809L110.863 10.3914H110.896C111.208 9.83687 111.845 9.48368 112.556 9.48368C113.657 9.48368 114.381 10.3166 114.381 11.6722V14.7805ZM122.219 10.4563H120.938V12.976C120.938 13.6175 121.162 13.9377 121.616 13.9377C121.821 13.9377 121.994 13.9157 122.133 13.8838L122.165 14.7596C121.939 14.8454 121.637 14.8884 121.261 14.8884C120.343 14.8884 119.794 14.3866 119.794 13.0729V10.4563H119.029V9.5915H119.794V8.64084L120.938 8.29865V9.5904H122.219V10.4563ZM128.387 14.7805H127.223V11.8229C127.223 10.8943 126.869 10.4244 126.166 10.4244C125.562 10.4244 125 10.8304 125 11.6524V14.7805H123.836V7.21045H125V10.3276H125.023C125.39 9.76205 125.921 9.48368 126.6 9.48368C127.709 9.48368 128.387 10.3375 128.387 11.6942V14.7805ZM134.706 12.4633H131.21C131.232 13.4459 131.889 14.0004 132.862 14.0004C133.379 14.0004 133.855 13.9146 134.275 13.7551L134.456 14.5561C133.96 14.7695 133.377 14.8763 132.697 14.8763C131.058 14.8763 130.087 13.8508 130.087 12.2608C130.087 10.6698 131.081 9.47377 132.566 9.47377C133.906 9.47377 134.746 10.4563 134.746 11.9407C134.754 12.1158 134.74 12.2913 134.706 12.4633ZM133.638 11.6414C133.638 10.8403 133.23 10.2748 132.485 10.2748C131.816 10.2748 131.287 10.8514 131.211 11.6414H133.638Z" fill="white"/>
<defs>
<linearGradient id="paint0_linear_717_1171" x1="110.014" y1="44.1168" x2="110.014" y2="-114.568" gradientUnits="userSpaceOnUse">
<stop stop-color="#1A1A1A" stop-opacity="0.1"/>
<stop offset="0.123" stop-color="#212121" stop-opacity="0.151"/>
<stop offset="0.308" stop-color="#353535" stop-opacity="0.227"/>
<stop offset="0.532" stop-color="#575757" stop-opacity="0.318"/>
<stop offset="0.783" stop-color="#858585" stop-opacity="0.421"/>
<stop offset="1" stop-color="#B3B3B3" stop-opacity="0.51"/>
</linearGradient>
</defs>
</svg>
